<?xml version="1.0" encoding="UTF-8"?>
<svg id="Layer_1" data-name="Layer 1" xmlns="http://www.w3.org/2000/svg" viewBox="0 0 91.5966 89.31049">
  <defs>
    <style>
      .cls-1 {
        fill: #00005b;
      }

      .cls-1, .cls-2, .cls-3 {
        stroke-width: 0px;
      }

      .cls-2 {
        fill: #00005a;
      }

      .cls-3 {
        fill: #9898fe;
      }
    </style>
  </defs>
  <path class="cls-2" d="M0,74.77917V14.59432c.1599-1.00886.14402-2.03818.4726-3.02891C2.47307,5.53371,6.55926,1.76023,12.71432.22993,13.63903.00002,14.60517.01266,15.55456.01229,35.70699.00448,55.85942.01364,76.01184,0c3.8456-.0026,7.14311,1.374,10.02188,3.83302,2.56398,2.19011,4.26505,4.93949,5.16623,8.19486.31456,1.13631.38548,2.29367.38629,3.44987.01353,19.46533.00887,38.93068.01036,58.39602.0003,3.92735-1.48077,7.26424-4.04282,10.16962-2.19567,2.4899-4.92805,4.10785-8.12319,4.96672-.83161.22354-1.69729.15351-2.53758.30038H14.53186c-.95073-.15147-1.91755-.15437-2.85356-.45393-6.00003-1.92018-9.80561-5.91744-11.42984-11.99739-.18157-.67968-.10748-1.39347-.24847-2.08001Z"/>
  <path class="cls-3" d="M29.69693,53.46953c-2.19291.00002-4.38592.0106-6.57865-.00948-.40731-.00373-.58681.10912-.71354.51287-.84881,2.70436-1.73046,5.39841-2.59918,8.09653-.29032.90171-.31581.92437-1.23194.92444-2.11662.00015-4.23323.00018-6.34985-.00003-.94644-.0001-1.05152-.14272-.74381-1.02451,2.63875-7.56162,5.28062-15.12216,7.91695-22.68462,1.48412-4.25728,2.95765-8.51826,4.44045-12.77601.32446-.93166.40667-1.8976.41141-2.87035.00215-.44137.15686-.61145.60248-.60993,3.14628.01072,6.29275.02066,9.43884-.00606.62774-.00533.68881.41829.8328.82062,4.08361,11.40962,8.16593,22.8197,12.248,34.22987.4678,1.30759.93776,2.61443,1.39743,3.92487.24635.7023.13752.85225-.6029.85306-2.47892.00271-4.95789-.00746-7.43671.00818-.49986.00315-.75887-.1924-.91705-.66222-.9287-2.75842-1.88555-5.50738-2.81101-8.26687-.12246-.36513-.26914-.47873-.66803-.47371-2.21161.02782-4.42375.01334-6.63571.01336Z"/>
  <path class="cls-3" d="M75.74869,58.63451c.00007.87688-.02681,1.75487.0093,2.63025.02507.60759-.21223.93969-.77995,1.15553-2.67187,1.0158-5.44543,1.39023-8.28582,1.40746-2.39522.01452-4.75994-.17548-7.02842-1.00995-3.50718-1.29011-6.10239-3.64417-7.52826-7.07123-2.35309-5.65561-2.11678-11.28356.87474-16.66411,1.74739-3.14285,4.35856-5.40544,7.8958-6.34002,2.97504-.78605,5.99553-.80227,8.96896.11101,4.48981,1.37902,6.9048,4.63225,8.04063,9.00912.56401,2.17338.48439,4.38378.29329,6.59158-.13867,1.602.08972,1.4207-1.72284,1.61995-2.12067.23311-4.22606-.06542-6.33925-.04581-3.45017.03202-6.90089.01692-10.35126-.0009-.47613-.00245-.57466.11353-.4747.58146.81249,3.80356,3.00491,5.19482,6.43676,5.85852,2.22964.4312,4.43815.09559,6.64138-.2778.9791-.16593,1.94032-.39732,2.86108-.76485.41215-.16452.49771-.03583.49262.35046-.01254.95297-.00411,1.90621-.00404,2.85934Z"/>
  <path class="cls-1" d="M29.51055,30.05254c.74827,2.2579,1.39169,4.54329,2.11667,6.80453.90541,2.82404,1.78962,5.65489,2.70121,8.4769.1399.43309.06331.53768-.39874.53449-2.85817-.01981-5.71665-.02263-8.57476.0013-.53736.0045-.50754-.15768-.37384-.57489,1.49092-4.65223,2.97917-9.30565,4.24518-14.02598.1078-.40195.19012-.81073.28427-1.21634Z"/>
  <path class="cls-1" d="M64.44515,44.45788c-1.5804-.00002-3.16081-.002-4.74119.00195-.25956.00065-.49669.03428-.42375-.36942.46215-2.55772,1.834-4.66728,4.54244-5.17058,3.94374-.73286,6.19606,1.82494,6.4877,4.3783.09957.87171-.03347,1.09092-.95339,1.12445-1.3693.04992-2.74126.0274-4.11209.0351-.26657.00149-.53314.00022-.79972.0002Z"/>
</svg>