<?xml version="1.0" encoding="UTF-8"?>
<svg id="Layer_1" data-name="Layer 1" xmlns="http://www.w3.org/2000/svg" viewBox="0 0 91.45455 89.14788">
  <defs>
    <style>
      .cls-1 {
        fill: #61233c;
      }

      .cls-1, .cls-2, .cls-3 {
        stroke-width: 0px;
      }

      .cls-2 {
        fill: #49021f;
      }

      .cls-3 {
        fill: #f36;
      }
    </style>
  </defs>
  <path class="cls-2" d="M0,74.00716V15.18458c.10586-.394.05397-.80171.10171-1.19965.42234-3.52027,1.92786-6.53075,4.36062-9.07844C6.89881,2.35492,9.86974.76235,13.34647.14027,14.07182.01048,14.81333.00139,15.55243.00072c20.14374-.00005,40.28632-.00004,60.42774-.00005,3.67171-.03476,6.8578,1.29271,9.6589,3.57145,2.94523,2.39599,4.80962,5.49006,5.62347,9.20419.11754.5364.12553,1.08948.14987,1.63819.01139.25673-.04871.51775.04214.77007v58.82257c-.08598.58506-.03838,1.17775-.10569,1.76457-.14689,1.28043-.54099,2.4925-1.06145,3.65876-2.01979,4.52602-5.39975,7.55811-10.10153,9.11909-1.22069.40527-2.47448.59095-3.76183.55443-20.43298.00004-40.8648.00004-61.29545.00004-2.7489.07477-5.19569-.87603-7.494-2.27013-2.60209-1.57836-4.5717-3.76846-5.94936-6.46993-.98172-1.92508-1.61172-3.96352-1.64163-6.15219-.00097-.07079.0125-.14532-.04361-.20464Z"/>
  <path class="cls-1" d="M76.59375,89.07059c-.02033.02232-.02668.04809-.01906.07729H14.96687c.00785-.02923.00153-.05501-.01897-.07731.52157-.00322,1.04317-.00928,1.56478-.00929,17.83767-.00049,35.67534-.00018,53.51301-.00071,2.1028-.00006,4.2056-.00448,6.30841-.00586.08654-.00006.1731.01036.25965.01589Z"/>
  <path class="cls-3" d="M67.52037,38.83737c0,5.59647.0083,11.19296-.00526,16.7894-.00386,1.59692.13269,3.18509.20876,4.77708.02909.60901-.03546.73135-.58666.95822-1.9637.80822-3.99559,1.38288-6.08477,1.75343-2.05946.36526-4.13726.54724-6.22825.51659-2.74431-.04023-5.39039-.57881-7.86054-1.79392-3.67032-1.80549-6.02273-4.72462-7.09451-8.66593-.54071-1.9884-.73609-4.03063-.59043-6.07589.42651-5.98892,3.33404-10.40592,8.62053-13.23857,1.72746-.92562,3.60172-1.43048,5.53824-1.70677,1.23596-.17634,2.47802-.26641,3.72623-.24734.44833.00685.89578.05903,1.34417.07728.53477.02176.50652.05143.5066-.47017.00035-2.33428.00014-4.66856.00016-7.00284,0-1.40637-.00011-2.81273.00037-4.2191.00004-.11592-.00627-.23322.00872-.34746.03337-.25435.13717-.35484.39098-.38465.10025-.01177.20271-.00602.30417-.00603,2.37781-.00028,4.75561-.00028,7.13341-.00021.08698,0,.17453-.00503.26084.00292.28204.02599.38513.12761.40391.4069.00971.14437.00325.28986.00325.43484.00008,6.14742.00007,12.29483.00007,18.44225Z"/>
  <path class="cls-3" d="M24.78948,42.99313c.00001-6.43688-.00011-12.87376.00016-19.31063.00003-.7864.05588-.84308.83622-.84335,2.30512-.0008,4.61025-.00065,6.91538-.00041.58782.00006.71583.12531.72532.70663.00165.10146.00053.20296.00053.30445.00002,12.72877.00006,25.45754-.00038,38.18631,0,.21738.00684.43587-.01202.65188-.02732.31285-.15696.43552-.46635.46574-.11504.01124-.23174.00723-.34768.00724-2.27613.00036-4.55226.00031-6.82839.00022-.08698,0-.17408.00152-.26093-.00214-.41584-.01754-.53924-.13705-.55843-.55093-.00805-.17363-.00335-.34787-.00335-.52184-.00011-6.36439-.0001-12.72878-.00008-19.09317Z"/>
  <path class="cls-2" d="M59.01475,47.64163c0,2.63758.00029,5.27516-.00025,7.91274-.0001.4906-.01073.54963-.4798.58979-1.89453.16221-3.78473.26143-5.63684-.35618-2.06517-.68866-3.44741-2.07481-4.24123-4.06979-.67824-1.70452-.83324-3.47989-.65366-5.29519.06153-.62192.16463-1.23385.349-1.83078.57598-1.86485,1.79107-3.229,3.41422-4.23828,2.10432-1.30847,4.40568-1.6002,6.81793-1.19196.43103.07295.43021.08959.43031.52344.00065,2.65207.00033,5.30414.00033,7.95621Z"/>
</svg>