<?xml version="1.0" encoding="UTF-8"?>
<svg id="Layer_1" data-name="Layer 1" xmlns="http://www.w3.org/2000/svg" viewBox="0 0 92.01 89.73">
  <defs>
    <style>
      .cls-1 {
        fill: #99f;
      }

      .cls-1, .cls-2 {
        stroke-width: 0px;
      }

      .cls-2 {
        fill: #00005b;
      }
    </style>
  </defs>
  <path class="cls-2" d="M15.38,0h61.39c.53.08,1.07.05,1.6.11,1.39.15,2.71.57,3.98,1.14,4.38,1.97,7.37,5.23,8.99,9.75.41,1.13.67,2.29.63,3.51,0,.07-.01.15.04.21v60.34c-.11.28-.03.57-.06.86-.32,3.08-1.63,5.73-3.58,8.07-2.49,2.99-5.68,4.84-9.49,5.58-.8.16-1.62.16-2.44.16-20.25,0-40.49,0-60.73,0-3.87.06-7.17-1.39-10.07-3.85-3.02-2.57-4.8-5.86-5.49-9.75-.09-.49-.1-.98-.1-1.48-.07-19.87-.07-39.73,0-59.6.02-1.95.55-3.77,1.35-5.52,1.25-2.76,3.12-5.02,5.62-6.73C9.06,1.39,11.3.44,13.78.11c.53-.07,1.07-.03,1.6-.11Z"/>
  <path class="cls-1" d="M21.93,43.18c0-6.48,0-12.96,0-19.44,0-.74.02-.75.76-.76,3.17-.07,6.33-.15,9.5-.2,1.56-.03,3.12-.04,4.68.09,2.78.23,5.44.87,7.86,2.32,3.29,1.97,5.23,4.88,5.92,8.63.45,2.45.32,4.89-.37,7.28-.96,3.3-3.05,5.69-6.02,7.36-1.63.92-3.41,1.43-5.25,1.74-2.33.4-4.67.47-7.02.37-.5-.02-.99-.02-1.49-.03-.18,0-.28.05-.26.25,0,.12,0,.23,0,.35,0,3.79,0,7.59,0,11.38,0,.13,0,.26,0,.39-.03.27-.18.42-.45.45-.1.01-.2,0-.31,0-2.28,0-4.55,0-6.83,0-.09,0-.18,0-.26,0-.33-.02-.44-.13-.46-.46-.01-.17,0-.35,0-.53,0-6.39,0-12.79,0-19.18Z"/>
  <path class="cls-1" d="M64.45,36.79c.19-.2.31-.33.43-.45,1.86-1.93,4.04-3.33,6.67-3.98.9-.22,1.81-.33,2.73-.32.47,0,.63.15.63.63,0,2.41,0,4.82,0,7.22,0,.48-.11.6-.6.6-.89,0-1.78.03-2.66.14-1.63.21-3.21.62-4.71,1.29-.6.27-1.15.63-1.64,1.08-.24.22-.34.46-.34.8.01,6.17,0,12.35,0,18.52,0,.19,0,.38,0,.57-.02.41-.12.52-.52.53-.16,0-.32,0-.48,0-2.26,0-4.52,0-6.79,0-.1,0-.2,0-.31,0-.36-.02-.53-.18-.56-.54-.01-.14,0-.29,0-.44,0-7.59,0-15.18-.02-22.77,0-1.61-.06-3.21-.11-4.81-.02-.54-.08-1.08-.12-1.61-.04-.43.08-.56.5-.56,2.13,0,4.26,0,6.39,0,.61,0,.87.18,1.05.78.25.87.37,1.77.43,2.67.01.19.02.37.03.66Z"/>
  <path class="cls-2" d="M30.28,36.84c0-1.96,0-3.91,0-5.87,0-.1,0-.2,0-.31-.01-.18.05-.28.24-.27.06,0,.12,0,.17,0,1.68.02,3.35-.11,5.03,0,1.25.08,2.46.35,3.59.88,1.72.8,2.74,2.18,3.11,4.03.23,1.14.17,2.3-.1,3.43-.37,1.55-1.38,2.6-2.71,3.38-.89.52-1.89.77-2.89.98-.91.2-1.84.29-2.78.29-1.05,0-2.1.02-3.15-.03-.1,0-.2-.01-.31-.02-.14,0-.21-.07-.21-.22,0-.1,0-.2,0-.31,0-1.98,0-3.97,0-5.95Z"/>
</svg>