<?xml version="1.0" encoding="UTF-8"?>
<svg id="Layer_2" data-name="Layer 2" xmlns="http://www.w3.org/2000/svg" viewBox="0 0 822.24703 256.23743">
  <defs>
    <style>
      .cls-1, .cls-2 {
        stroke-width: 0px;
      }

      .cls-2 {
        fill: #cec4ef;
      }
    </style>
  </defs>
  <g id="Layer_1-2" data-name="Layer 1">
    <g>
      <g>
        <path class="cls-1" d="M767.41831,59.07431h-2.22013c-11.70089.58506-21.52665,2.92522-29.47728,7.0355,1.20016,1.06502,2.3853,2.19009,3.54041,3.36022,8.23556,8.29553,14.26601,17.55124,18.03129,27.72191,2.14505-1.39509,4.78525-2.14514,7.90558-2.2801h2.22013c10.09568.40497,15.13601,7.44046,15.13601,21.07645v75.0502h39.69271v-75.0502c0-36.12255-18.27136-55.09891-54.82872-56.91398Z"/>
        <path class="cls-1" d="M290.09131,58.45922l-21.10639,36.46754-19.39644-36.46754h-54.57364c4.72518,3.01523,9.19547,6.58548,13.38082,10.69575,15.70605,15.39109,23.6717,34.51743,23.6717,56.83899,0,1.20007-.03003,2.40013-.07508,3.57026l36.46764,61.65427,78.0505-132.75928h-56.4191Z"/>
        <path class="cls-2" d="M213.88086,125.98829c0,18.54641-6.65606,34.53755-19.94755,48.01418-13.29149,13.45701-28.70558,17.04213-46.90182,17.04213h-3.40048v-46.71618c.61882-.16502,1.25726-.24702,1.91682-.24702h.20627c5.02802-.18565,9.35521-1.8962,12.96145-5.64633,3.62687-3.75064,5.44056-8.22272,5.44056-13.3745s-1.87507-9.54085-5.64633-13.16773c-3.75064-3.62687-8.26347-5.44006-13.49776-5.44006-12.59117,0-18.89707,8.69614-18.89707,26.08843v67.24129c0,27.09816-21.96701,49.06517-49.06517,49.06517v-59.16296c-5.27554,1.17475-10.63309,1.75181-15.806,1.75181-18.62841,0-36.61889-6.77982-47.99356-20.31884C4.4097,160.52584,0,145.8327,0,127.01864V58.04668c27.09816,0,49.06517,21.94638,49.06517,49.04504v24.78992c0,7.43939,6.09963,11.14877,12.30239,11.14877,6.12076,0,13.70404-3.70938,13.70404-11.14877V58.04668h69.42526c19.49425,0,35.93869,6.55292,49.31269,19.6799,2.01946,1.9782,3.89503,4.01829,5.60508,6.11975,4.41021,5.46119,7.81018,11.33392,10.20042,17.66044,2.86467,7.54253,4.26581,15.68224,4.26581,24.48152Z"/>
        <path class="cls-1" d="M411.80187,58.37371v132.6688h-.00005c-27.09524,0-49.06026-21.96503-49.06026-49.06026V58.37371h49.06031ZM387.40246,0c6.645,0,12.39637,2.34025,17.25047,7.01782,4.85337,4.67904,7.28005,10.21141,7.28005,16.59418,0,6.82079-2.29557,12.41835-6.88671,16.79121-4.59114,4.37286-10.47363,6.55856-17.64381,6.55856-7.17164,0-13.05194-2.1857-17.64308-6.55856-4.59114-4.37286-6.88671-9.97042-6.88671-16.79121,0-6.38277,2.42668-11.91514,7.28005-16.59418,4.8541-4.67757,10.60328-7.01782,17.24974-7.01782Z"/>
        <path class="cls-1" d="M592.02169,107.43397v83.60854h-49.06031V58.37371s.00005,0,.00005,0c27.09524,0,49.06026,21.96503,49.06026,49.06026ZM567.62228,0c6.645,0,12.39637,2.34025,17.25047,7.01782,4.85337,4.67904,7.28005,10.21141,7.28005,16.59418,0,6.82079-2.29557,12.41835-6.88671,16.79121s-10.47363,6.55856-17.64381,6.55856c-7.17164,0-13.05194-2.1857-17.64308-6.55856-4.59114-4.37286-6.88671-9.97042-6.88671-16.79121,0-6.38277,2.42668-11.91514,7.28005-16.59418,4.8541-4.67757,10.60328-7.01782,17.24974-7.01782Z"/>
        <path class="cls-1" d="M523.85077,58.46324v51.6833c-6.91015,0-11.65511,1.29208-14.23342,3.87039-2.57977,2.57977-4.22051,7.67339-4.91929,15.28232-2.27506,25.27325-12.06823,43.11483-29.38389,53.52034-9.18228,5.42177-22.21444,8.13338-39.09062,8.13338h-6.82079v-51.94699h2.22965c7.87116,0,13.48922-1.63927,16.85567-4.91929,3.36645-3.27855,5.31336-9.02846,5.83781-17.24974.69878-13.37935,1.94545-22.77991,3.73854-28.20314,1.79163-5.42177,5.44374-10.79958,10.9534-16.13492,9.61884-9.35661,22.95571-14.03565,40.00914-14.03565h14.82379Z"/>
        <path class="cls-1" d="M678.16544,58.46324c18.03886,0,33.5048,6.48857,46.39642,19.46429,12.89162,12.97714,19.33742,28.52719,19.33742,46.653,0,18.37953-6.53133,34.03792-19.59258,46.97087-13.06267,12.9358-28.82653,19.40157-47.29017,19.40157-18.46649,0-34.25173-6.48715-47.35431-19.46571-13.10543-12.97429-19.65672-28.61129-19.65672-46.90673,0-18.63611,6.55129-34.31302,19.65672-47.03501,13.10258-12.72056,29.27127-19.08227,48.50321-19.08227ZM676.88826,105.5624c-5.10448,0-9.44492,1.85021-13.01848,5.55206-3.57356,3.70185-5.36105,8.23188-5.36105,13.59293,0,5.27695,1.80745,9.78702,5.4252,13.53021,3.6149,3.74604,7.93253,5.61621,12.95434,5.61621,5.1059,0,9.4663-1.87017,13.08405-5.61621,3.6149-3.74319,5.42377-8.25326,5.42377-13.53021,0-5.36105-1.78607-9.89108-5.35963-13.59293-3.57499-3.70185-7.95819-5.55206-13.14819-5.55206Z"/>
      </g>
      <g>
        <path class="cls-1" d="M181.23648,213.94209l-15.09028,23.53864v10.83966h-7.12018v-10.83966l-15.09028-23.53864h8.18279l12.69915,20.56332h-4.25079l12.48679-20.56332h8.18279Z"/>
        <path class="cls-1" d="M195.74174,248.95795c-3.33002,0-6.26153-.53114-8.79383-1.59409-2.53298-1.06261-4.50813-2.61171-5.92444-4.64931-1.41715-2.03659-2.12539-4.54288-2.12539-7.51853s.70824-5.4994,2.12539-7.57158c1.41631-2.07251,3.39146-3.63974,5.92444-4.70269,2.53231-1.06261,5.46381-1.59375,8.79383-1.59375,3.32935,0,6.2434.53114,8.74079,1.59375,2.49722,1.06295,4.45408,2.63018,5.8714,4.70269,1.41631,2.07218,2.12539,4.59593,2.12539,7.57158s-.70908,5.48194-2.12539,7.51853c-1.41732,2.0376-3.37417,3.5867-5.8714,4.64931-2.49739,1.06295-5.41144,1.59409-8.74079,1.59409ZM195.74174,243.64455c1.84153,0,3.49789-.32701,4.96809-.98304,1.46953-.65503,2.63018-1.61155,3.48043-2.86922.85009-1.25701,1.2753-2.78965,1.2753-4.59626s-.42521-3.35571-1.2753-4.64931c-.85026-1.29259-2.00167-2.27564-3.45374-2.94879-1.45291-.67248-3.1175-1.00957-4.99478-1.00957-1.8422,0-3.50679.33708-4.99462,1.00957-1.48783.67316-2.66593,1.64713-3.53348,2.92227-.86839,1.27514-1.30183,2.83431-1.30183,4.67583,0,1.80661.42505,3.33926,1.2753,4.59626.85009,1.25768,2.01913,2.2142,3.50679,2.86922,1.48783.65603,3.16988.98304,5.04783.98304Z"/>
        <path class="cls-1" d="M241.59692,235.62107l.05305,1.80661c-.07134.49656-.24811,1.2137-.53131,2.15208-.28387.93906-.71731,1.93923-1.30183,3.00218-.58435,1.06261-1.33741,2.08124-2.25818,3.05522-.9216.97465-2.05489,1.77169-3.4007,2.39113-1.34665.6191-2.94057.92966-4.78209.92966-1.45291,0-2.87846-.17761-4.27731-.53114-1.39986-.35387-2.66593-.94745-3.79922-1.78009-1.13413-.83196-2.03726-1.95702-2.70991-3.37417-.67316-1.41648-1.0094-3.20563-1.0094-5.36645v-15.99392h6.90749v14.82488c0,1.70018.27396,3.03776.82357,4.01174.54876.97465,1.35487,1.6562,2.41765,2.04566,1.06261.39013,2.31962.58452,3.77253.58452,1.91287,0,3.56-.41598,4.94157-1.24895,1.38156-.83162,2.50562-1.85059,3.37401-3.05522.86772-1.20362,1.4613-2.35521,1.78009-3.45374ZM248.13241,248.32038h-6.90749v-26.4082h6.90749v26.4082Z"/>
        <path class="cls-1" d="M254.40216,221.91219h6.90749v26.4082h-6.90749v-26.4082ZM271.45836,227.59792c-1.98422,0-3.70202.38106-5.15409,1.14218-1.45291.76213-2.62178,1.69212-3.50696,2.78965-.88585,1.09854-1.50596,2.16115-1.85966,3.18817l-.05305-2.92261c.03475-.42505.17677-1.05355.42505-1.88618.24744-.83196.61927-1.7351,1.11583-2.70975.49555-.97398,1.15074-1.91304,1.96592-2.81618.8145-.90347,1.80661-1.63807,2.97565-2.20513,1.16887-.56639,2.53214-.85009,4.09131-.85009v6.26992Z"/>
        <path class="cls-1" d="M301.58519,248.32038l-15.19654-34.3783h7.81062l13.01793,31.03065h-2.44418l12.96488-31.03065h7.70453l-15.03706,34.3783h-8.82019Z"/>
        <path class="cls-1" d="M337.60995,210.32887v6.0574h-8.02348v-6.0574h8.02348ZM330.11794,221.91219h6.90749v26.4082h-6.90749v-26.4082Z"/>
        <path class="cls-1" d="M342.86997,239.55324h6.37601c.38946,1.20463,1.19557,2.18767,2.41765,2.94879,1.22209.76213,2.82457,1.14252,4.80878,1.14252,1.34564,0,2.39113-.12389,3.13479-.372.744-.24744,1.25701-.61104,1.54104-1.08914.28303-.47843.42505-1.01796.42505-1.62061,0-.744-.23099-1.31945-.69061-1.72704-.46097-.40692-1.16904-.7346-2.12556-.98304-.95652-.24744-2.17861-.47809-3.66627-.69061-1.48766-.24744-2.92261-.54893-4.30383-.90347-1.38156-.35353-2.60365-.82357-3.66627-1.40809-1.06295-.58419-1.90465-1.32818-2.52408-2.23165-.62011-.90314-.93-2.00973-.93-3.32079,0-1.27514.30989-2.40859.93-3.4007.61944-.9911,1.48766-1.82407,2.60365-2.49722,1.11566-.67248,2.42605-1.1865,3.93184-1.54104,1.50545-.35353,3.12606-.53114,4.86183-.53114,2.62111,0,4.79972.38106,6.53582,1.14218,1.7351.76213,3.03676,1.82508,3.90531,3.18817.86755,1.36411,1.30166,2.93167,1.30166,4.70236h-6.11044c-.28403-1.31005-.85009-2.25818-1.70018-2.8427s-2.16115-.87661-3.93217-.87661c-1.73577,0-3.04683.26557-3.93184.79704-.88601.53114-1.32852,1.25768-1.32852,2.17861,0,.74366.27396,1.31979.82357,1.7267.54893.40759,1.36343.7356,2.44451.98304,1.08007.24811,2.43478.51402,4.06479.79704,1.38123.28403,2.70068.60265,3.95836.95652,1.25701.35454,2.38207.80611,3.37417,1.35471.9911.5496,1.78009,1.27547,2.36461,2.17861.58419.90347.87661,2.04566.87661,3.42722,0,1.70018-.48749,3.13513-1.46113,4.30383-.97465,1.16904-2.36461,2.06412-4.17122,2.68356-1.80661.6191-3.96776.92966-6.48244.92966-2.23165,0-4.15376-.23905-5.7653-.71714-1.61222-.47843-2.94879-1.09787-4.01141-1.85999-1.06295-.76112-1.88652-1.57562-2.47104-2.44418-.58419-.86755-.98271-1.69112-1.19523-2.4707-.21252-.77858-.28403-1.41648-.21252-1.9127Z"/>
        <path class="cls-1" d="M381.81733,210.32887v6.0574h-8.02348v-6.0574h8.02348ZM374.32533,221.91219h6.90749v26.4082h-6.90749v-26.4082Z"/>
        <path class="cls-1" d="M403.7085,248.95795c-3.33019,0-6.26186-.53114-8.794-1.59409-2.53281-1.06261-4.50796-2.61171-5.92444-4.64931-1.41715-2.03659-2.12556-4.54288-2.12556-7.51853s.70841-5.4994,2.12556-7.57158c1.41648-2.07251,3.39163-3.63974,5.92444-4.70269,2.53214-1.06261,5.46381-1.59375,8.794-1.59375,3.32918,0,6.2434.53114,8.74062,1.59375,2.49722,1.06295,4.45424,2.63018,5.8714,4.70269,1.41648,2.07218,2.12523,4.59593,2.12523,7.57158s-.70874,5.48194-2.12523,7.51853c-1.41715,2.0376-3.37417,3.5867-5.8714,4.64931-2.49722,1.06295-5.41144,1.59409-8.74062,1.59409ZM403.7085,243.64455c1.84119,0,3.49773-.32701,4.96792-.98304,1.46953-.65503,2.63018-1.61155,3.48027-2.86922.85043-1.25701,1.27547-2.78965,1.27547-4.59626s-.42505-3.35571-1.27547-4.64931c-.85009-1.29259-2.00167-2.27564-3.45374-2.94879-1.45274-.67248-3.11733-1.00957-4.99445-1.00957-1.84253,0-3.50713.33708-4.99478,1.00957-1.48766.67316-2.66576,1.64713-3.53331,2.92227-.86856,1.27514-1.30199,2.83431-1.30199,4.67583,0,1.80661.42505,3.33926,1.27514,4.59626.85043,1.25768,2.01913,2.2142,3.50713,2.86922,1.48766.65603,3.16971.98304,5.04783.98304Z"/>
        <path class="cls-1" d="M425.54662,221.91219h6.90749v26.4082h-6.90749v-26.4082ZM444.72838,221.328c1.62867,0,3.13479.21252,4.51636.63757s2.58519,1.08074,3.61322,1.96575c1.02702.88601,1.82407,2.01107,2.39113,3.37417.56606,1.36411.85009,2.98472.85009,4.86183v16.15306h-6.90749v-14.93097c0-2.23165-.54054-3.86972-1.62061-4.91488-1.08108-1.04448-2.8427-1.56756-5.28721-1.56756-1.8422,0-3.50679.35454-4.99445,1.06261-1.48799.70908-2.69262,1.60349-3.61322,2.68356-.9216,1.08074-1.45308,2.20513-1.59409,3.37384l-.05305-2.70975c.17693-1.23955.58452-2.44418,1.22209-3.61322s1.49605-2.24005,2.57713-3.2147c1.08007-.97364,2.36427-1.74416,3.85227-2.31122,1.48766-.56639,3.16971-.85009,5.04783-.85009Z"/>
        <path class="cls-1" d="M462.74076,256.23743l-.95652-1.80661c.53114-.77959,1.05355-1.64713,1.56756-2.60365.51301-.95618.78764-1.93117.82357-2.92227l-2.92261-.58452v-6.11044h8.12958v4.35688c0,2.51502-.59359,4.54322-1.77975,6.08392-1.18751,1.54104-2.80812,2.73661-4.86183,3.5867Z"/>
        <path class="cls-1" d="M508.80779,249.011c-4.5694,0-8.47505-.71714-11.71627-2.15175-3.24122-1.43461-5.72099-3.48027-7.43863-6.1373-1.71865-2.6567-2.57713-5.84454-2.57713-9.56419,0-3.75423.85848-6.96053,2.57713-9.61723,1.71764-2.6567,4.1974-4.70269,7.43863-6.1373,3.24122-1.43461,7.14687-2.15175,11.71627-2.15175,4.60466,0,8.51903.71714,11.7428,2.15175,3.22309,1.43461,5.69379,3.4806,7.41244,6.1373,1.71764,2.6567,2.57713,5.863,2.57713,9.61723,0,3.71965-.85949,6.90749-2.57713,9.56419-1.71865,2.65704-4.18935,4.70269-7.41244,6.1373-3.22376,1.43461-7.13814,2.15175-11.7428,2.15175ZM508.80779,242.90055c2.83363,0,5.32179-.42505,7.46548-1.27514,2.14302-.85009,3.82574-2.14302,5.04783-3.87879,1.22209-1.73543,1.83313-3.93217,1.83313-6.58887s-.61104-4.85277-1.83313-6.58854c-1.22209-1.73543-2.90481-3.03709-5.04783-3.90565-2.14369-.86755-4.63185-1.30166-7.46548-1.30166-2.79872,0-5.29594.43411-7.49201,1.30166-2.19674.86856-3.91438,2.17021-5.15392,3.90565-1.24055,1.73577-1.85966,3.93184-1.85966,6.58854s.6191,4.85344,1.85966,6.58887c1.23955,1.73577,2.95719,3.0287,5.15392,3.87879,2.19607.85009,4.69329,1.27514,7.49201,1.27514Z"/>
        <path class="cls-1" d="M560.5609,235.62107l.05338,1.80661c-.07151.49656-.24845,1.2137-.53147,2.15208-.28403.93906-.71714,1.93923-1.30166,3.00218-.58452,1.06261-1.33758,2.08124-2.25851,3.05522-.92127.97465-2.05472,1.77169-3.40036,2.39113-1.34665.6191-2.94073.92966-4.78226.92966-1.45274,0-2.87829-.17761-4.27731-.53114-1.39969-.35387-2.66576-.94745-3.79922-1.78009-1.13413-.83196-2.03726-1.95702-2.70975-3.37417-.67349-1.41648-1.00957-3.20563-1.00957-5.36645v-15.99392h6.90749v14.82488c0,1.70018.27396,3.03776.82357,4.01174.54893.97465,1.35504,1.6562,2.41765,2.04566,1.06261.39013,2.31962.58452,3.7727.58452,1.9127,0,3.55984-.41598,4.9414-1.24895,1.38156-.83162,2.50562-1.85059,3.37417-3.05522.86755-1.20362,1.46113-2.35521,1.77975-3.45374ZM567.09673,248.32038h-6.90749v-26.4082h6.90749v26.4082Z"/>
        <path class="cls-1" d="M573.36597,221.91219h6.90749v26.4082h-6.90749v-26.4082ZM590.42217,227.59792c-1.98422,0-3.70185.38106-5.15392,1.14218-1.45308.76213-2.62212,1.69212-3.50713,2.78965-.88568,1.09854-1.50612,2.16115-1.85966,3.18817l-.05305-2.92261c.03492-.42505.17693-1.05355.42505-1.88618.24744-.83196.61944-1.7351,1.11566-2.70975.49589-.97398,1.15091-1.91304,1.96609-2.81618.8145-.90347,1.80661-1.63807,2.97565-2.20513,1.16904-.56639,2.53214-.85009,4.09131-.85009v6.26992Z"/>
        <path class="cls-1" d="M635.10764,244.81359h-3.34731l19.76594-30.87151h7.06696v34.3783h-7.06696v-24.97325l1.70052.47809-15.78106,24.49516h-7.91705l-15.78106-24.38906,1.70018-.47809v24.86716h-7.06696v-34.3783h7.06696l19.65985,30.87151Z"/>
        <path class="cls-1" d="M673.79011,210.32887v6.0574h-8.02348v-6.0574h8.02348ZM666.2981,221.91219h6.90749v26.4082h-6.90749v-26.4082Z"/>
        <path class="cls-1" d="M679.05012,239.55324h6.37601c.38946,1.20463,1.19557,2.18767,2.41765,2.94879,1.22209.76213,2.82457,1.14252,4.80878,1.14252,1.34564,0,2.39113-.12389,3.13479-.372.744-.24744,1.25701-.61104,1.54104-1.08914.28303-.47843.42505-1.01796.42505-1.62061,0-.744-.23099-1.31945-.69061-1.72704-.46097-.40692-1.16904-.7346-2.12556-.98304-.95652-.24744-2.17861-.47809-3.66627-.69061-1.48766-.24744-2.92261-.54893-4.30383-.90347-1.38156-.35353-2.60365-.82357-3.66627-1.40809-1.06295-.58419-1.90465-1.32818-2.52408-2.23165-.62011-.90314-.93-2.00973-.93-3.32079,0-1.27514.30989-2.40859.93-3.4007.61944-.9911,1.48766-1.82407,2.60365-2.49722,1.11566-.67248,2.42605-1.1865,3.93184-1.54104,1.50545-.35353,3.12606-.53114,4.86183-.53114,2.62111,0,4.79972.38106,6.53582,1.14218,1.7351.76213,3.03676,1.82508,3.90531,3.18817.86755,1.36411,1.30166,2.93167,1.30166,4.70236h-6.11044c-.28403-1.31005-.85009-2.25818-1.70018-2.8427s-2.16115-.87661-3.93217-.87661c-1.73577,0-3.04683.26557-3.93184.79704-.88601.53114-1.32852,1.25768-1.32852,2.17861,0,.74366.27396,1.31979.82357,1.7267.54893.40759,1.36343.7356,2.44451.98304,1.08007.24811,2.43478.51402,4.06479.79704,1.38123.28403,2.70068.60265,3.95836.95652,1.25701.35454,2.38207.80611,3.37417,1.35471.9911.5496,1.78009,1.27547,2.36461,2.17861.58419.90347.87661,2.04566.87661,3.42722,0,1.70018-.48749,3.13513-1.46113,4.30383-.97465,1.16904-2.36461,2.06412-4.17122,2.68356-1.80661.6191-3.96776.92966-6.48244.92966-2.23165,0-4.15376-.23905-5.7653-.71714-1.61222-.47843-2.94879-1.09787-4.01141-1.85999-1.06295-.76112-1.88652-1.57562-2.47104-2.44418-.58419-.86755-.98271-1.69112-1.19523-2.4707-.21252-.77858-.28403-1.41648-.21252-1.9127Z"/>
        <path class="cls-1" d="M709.01782,239.55324h6.37601c.38946,1.20463,1.19557,2.18767,2.41765,2.94879,1.22209.76213,2.82457,1.14252,4.80878,1.14252,1.34564,0,2.39113-.12389,3.13479-.372.744-.24744,1.25701-.61104,1.54104-1.08914.28303-.47843.42505-1.01796.42505-1.62061,0-.744-.23099-1.31945-.69061-1.72704-.46097-.40692-1.16904-.7346-2.12556-.98304-.95652-.24744-2.17861-.47809-3.66627-.69061-1.48766-.24744-2.92261-.54893-4.30383-.90347-1.38156-.35353-2.60365-.82357-3.66627-1.40809-1.06295-.58419-1.90465-1.32818-2.52408-2.23165-.62011-.90314-.93-2.00973-.93-3.32079,0-1.27514.30989-2.40859.93-3.4007.61944-.9911,1.48766-1.82407,2.60365-2.49722,1.11566-.67248,2.42605-1.1865,3.93184-1.54104,1.50545-.35353,3.12606-.53114,4.86183-.53114,2.62111,0,4.79972.38106,6.53582,1.14218,1.7351.76213,3.03676,1.82508,3.90531,3.18817.86755,1.36411,1.30166,2.93167,1.30166,4.70236h-6.11044c-.28403-1.31005-.85009-2.25818-1.70018-2.8427s-2.16115-.87661-3.93217-.87661c-1.73577,0-3.04683.26557-3.93184.79704-.88601.53114-1.32852,1.25768-1.32852,2.17861,0,.74366.27396,1.31979.82357,1.7267.54893.40759,1.36343.7356,2.44451.98304,1.08007.24811,2.43478.51402,4.06479.79704,1.38123.28403,2.70068.60265,3.95836.95652,1.25701.35454,2.38207.80611,3.37417,1.35471.9911.5496,1.78009,1.27547,2.36461,2.17861.58419.90347.87661,2.04566.87661,3.42722,0,1.70018-.48749,3.13513-1.46113,4.30383-.97465,1.16904-2.36461,2.06412-4.17122,2.68356-1.80661.6191-3.96776.92966-6.48244.92966-2.23165,0-4.15376-.23905-5.7653-.71714-1.61222-.47843-2.94879-1.09787-4.01141-1.85999-1.06295-.76112-1.88652-1.57562-2.47104-2.44418-.58419-.86755-.98271-1.69112-1.19523-2.4707-.21252-.77858-.28403-1.41648-.21252-1.9127Z"/>
        <path class="cls-1" d="M747.96518,210.32887v6.0574h-8.02348v-6.0574h8.02348ZM740.47318,221.91219h6.90749v26.4082h-6.90749v-26.4082Z"/>
        <path class="cls-1" d="M769.85635,248.95795c-3.33019,0-6.26186-.53114-8.794-1.59409-2.53281-1.06261-4.50796-2.61171-5.92444-4.64931-1.41715-2.03659-2.12556-4.54288-2.12556-7.51853s.70841-5.4994,2.12556-7.57158c1.41648-2.07251,3.39163-3.63974,5.92444-4.70269,2.53214-1.06261,5.46381-1.59375,8.794-1.59375,3.32918,0,6.2434.53114,8.74062,1.59375,2.49722,1.06295,4.45424,2.63018,5.8714,4.70269,1.41648,2.07218,2.12523,4.59593,2.12523,7.57158s-.70874,5.48194-2.12523,7.51853c-1.41715,2.0376-3.37417,3.5867-5.8714,4.64931-2.49722,1.06295-5.41144,1.59409-8.74062,1.59409ZM769.85635,243.64455c1.84119,0,3.49773-.32701,4.96792-.98304,1.46953-.65503,2.63018-1.61155,3.48027-2.86922.85043-1.25701,1.27547-2.78965,1.27547-4.59626s-.42505-3.35571-1.27547-4.64931c-.85009-1.29259-2.00167-2.27564-3.45374-2.94879-1.45274-.67248-3.11733-1.00957-4.99445-1.00957-1.84253,0-3.50713.33708-4.99478,1.00957-1.48766.67316-2.66576,1.64713-3.53331,2.92227-.86856,1.27514-1.30199,2.83431-1.30199,4.67583,0,1.80661.42505,3.33926,1.27514,4.59626.85043,1.25768,2.01913,2.2142,3.50713,2.86922,1.48766.65603,3.16971.98304,5.04783.98304Z"/>
        <path class="cls-1" d="M791.69447,221.91219h6.90749v26.4082h-6.90749v-26.4082ZM810.87623,221.328c1.62867,0,3.13479.21252,4.51636.63757,1.38156.42505,2.58519,1.08074,3.61322,1.96575,1.02702.88601,1.82407,2.01107,2.39113,3.37417.56606,1.36411.85009,2.98472.85009,4.86183v16.15306h-6.90749v-14.93097c0-2.23165-.54054-3.86972-1.62061-4.91488-1.08108-1.04448-2.8427-1.56756-5.28721-1.56756-1.8422,0-3.50679.35454-4.99445,1.06261-1.48799.70908-2.69262,1.60349-3.61322,2.68356-.9216,1.08074-1.45308,2.20513-1.59409,3.37384l-.05305-2.70975c.17693-1.23955.58452-2.44418,1.22209-3.61322s1.49605-2.24005,2.57713-3.2147c1.08007-.97364,2.36427-1.74416,3.85227-2.31122,1.48766-.56639,3.16971-.85009,5.04783-.85009Z"/>
      </g>
    </g>
  </g>
</svg>